# xmcd
#
# Track frame offsets:
#	150
#	26130
#	50987
#	68450
#	87862
#	114550
#	150877
#	165187
#	178507
#	214182
#
# Disc length: 3163 seconds
#
# Revision: 1
# Processed by: cddbd v1.4PL0 Copyright (c) Steve Scherf et al.
# Submitted via: audiograbber 1.81.02
#
DISCID=770c590a
DTITLE=Tom Principato - Live and Kickin'
DYEAR=1999
DGENRE=Blues
TTITLE0=Today I Started Loving You Again
TTITLE1=Nevwe Make Your Move Too Soon
TTITLE2=Knockin' On The Door
TTITLE3=In Orbit
TTITLE4=Kansas City Blues
TTITLE5=Strangers Eyes
TTITLE6=One For Danny
TTITLE7=Try To Reach You
TTITLE8=In The Clouds
TTITLE9=Call The Law
EXTD=
EXTT0=
EXTT1=
EXTT2=
EXTT3=
EXTT4=
EXTT5=
EXTT6=
EXTT7=
EXTT8=
EXTT9=
PLAYORDER=
